# xmcd CD database file
#
# Track frame offsets:
#	150
#	7815
#	21941
#	40461
#	53641
#	68099
#	82319
#	85407
#	99433
#	113174
#	127593
#	142817
#	157172
#	176868
#
# Disc length: 2554 seconds
#
# Revision: 0
# Processed by: cddbd v1.4PL0 Copyright (c) Steve Scherf et al.
# Submitted via: CDex 1.50beta9
#
DISCID=b209f80e
DTITLE=Steven Anderson - Chasing Grace
DYEAR=1998
DGENRE=New Age
TTITLE0=Intro-Little Angel
TTITLE1=Maddy's Dollhouse
TTITLE2=Wedding Day White
TTITLE3=Til Death Do Us Part
TTITLE4=Beautiful Baby
TTITLE5=Above the Clouds
TTITLE6=Overtones
TTITLE7=Precious Moments
TTITLE8=Scenes from Summit
TTITLE9=Chasing Grace
TTITLE10=Time-Peace
TTITLE11=Edge of Night
TTITLE12=Opus Derian
TTITLE13=Little Angel - featuring Aimee Fischer
EXTD=YEAR: 1998
EXTT0=
EXTT1=
EXTT2=
EXTT3=
EXTT4=
EXTT5=
EXTT6=
EXTT7=
EXTT8=
EXTT9=
EXTT10=
EXTT11=
EXTT12=
EXTT13=
PLAYORDER=
